<svg width="46" height="46" viewBox="0 0 46 46" fill="none" xmlns="http://www.w3.org/2000/svg">
<circle cx="22.8733" cy="22.8733" r="21.8733" fill="#91D2D6" stroke="#F2F9FF" stroke-width="2"/>
<path d="M37.4104 34.212H32.3873C33.7763 33.2235 34.7798 32.2405 35.3694 31.2742C36.0214 30.2134 35.9534 29.5359 35.9364 29.4082C35.9137 29.2693 35.84 29.1471 35.7323 29.0583C35.6586 28.9972 34.9669 28.4696 33.4702 28.4696C32.1039 28.4696 30.4995 28.8861 28.6909 29.7136C28.6626 29.6914 28.6342 29.6747 28.6059 29.6581C27.1602 28.8972 26.2928 27.1756 25.964 24.421C26.7577 25.1374 28.3791 26.0316 31.5029 26.0316C31.9111 26.0316 32.274 26.0149 32.3873 25.9927C32.6821 25.9649 32.9089 25.7261 32.9146 25.4318V25.4207C32.9146 25.1208 32.8692 22.4106 30.97 19.2784C29.8702 17.4679 28.2771 16.2405 26.1 15.5241C24.677 15.0632 24.0591 14.2301 24.0024 12.6862C24.3199 12.453 24.609 12.1475 24.8584 11.7643C25.414 10.9146 25.7259 9.79833 25.7259 8.62096C25.7259 7.43249 25.4084 6.50503 24.7904 5.86637C24.2235 5.30545 23.4354 5 22.5 5C21.5646 5 20.7708 5.30545 20.2096 5.87747C19.5916 6.51614 19.2741 7.44359 19.2741 8.63207C19.2741 9.81499 19.5803 10.9313 20.1416 11.7754C20.391 12.1586 20.6858 12.4641 21.0033 12.6973C20.9523 14.2468 20.3343 15.0743 18.9056 15.5408C16.7286 16.2461 15.1355 17.4734 14.0357 19.295C12.1761 22.3606 12.0911 24.9486 12.0911 25.4373V25.4484C12.0967 25.7372 12.3349 25.9871 12.6353 26.0094H12.6467C12.658 26.0094 12.675 26.0094 12.7034 26.0094H12.726C12.8621 26.0149 13.1399 26.0316 13.5027 26.0316C14.9598 26.0316 17.5166 25.8094 19.0417 24.421C18.7129 27.1756 17.8455 28.8972 16.3998 29.6581C16.3658 29.6747 16.3374 29.697 16.3091 29.7192C14.5005 28.8972 12.8961 28.4807 11.5355 28.4807C10.0614 28.4807 9.39247 28.9694 9.26774 29.0694C9.16002 29.1583 9.08632 29.2804 9.06364 29.4193C9.04664 29.547 8.9786 30.2246 9.63058 31.2797C10.2202 32.2461 11.218 33.2291 12.607 34.212H7.58961C7.26646 34.212 7 34.4731 7 34.7896C7 35.1062 7.26646 35.3672 7.58961 35.3672H14.5686H22.1995H22.8005H30.4314H37.4104C37.7335 35.3672 38 35.1062 38 34.7896C38 34.4731 37.7335 34.212 37.4104 34.212ZM30.267 34.212H23.6509C24.7847 33.2513 26.3268 32.235 27.9993 31.3464C29.4846 30.5633 31.6333 29.6248 33.4645 29.6248C34.0825 29.6248 34.4907 29.7358 34.7345 29.8302C34.5984 30.4356 33.8897 32.0461 30.267 34.212ZM22.5 6.15515C23.8606 6.15515 24.5523 6.9882 24.5523 8.63207C24.5523 10.487 23.6112 12.0531 22.5 12.0531C21.3888 12.0531 20.4477 10.487 20.4477 8.63207C20.442 6.9882 21.1337 6.15515 22.5 6.15515ZM22.1825 18.3176C22.2109 18.1676 22.1825 18.0121 22.0918 17.8844C22.0068 17.7567 21.8707 17.6678 21.7176 17.64C21.5646 17.6123 21.4058 17.64 21.2754 17.7289C21.145 17.8122 21.0543 17.9455 21.026 18.0954C20.7992 19.2173 20.1642 21.3832 18.4748 23.3381C17.9192 23.9767 17.0007 24.4266 15.7365 24.6709C14.8124 24.8486 13.9053 24.882 13.2986 24.8764C13.395 23.9156 13.7522 22.0107 15.0448 19.8782C15.9916 18.3176 17.3749 17.2513 19.2685 16.6348C21.026 16.0628 21.9501 14.9576 22.1315 13.186C22.2505 13.2027 22.3639 13.2138 22.4887 13.2138C22.6134 13.2138 22.7324 13.2027 22.8515 13.186C23.0386 14.9521 23.9627 16.0517 25.7145 16.6293C27.6081 17.2457 28.9857 18.3065 29.9382 19.8726C31.2251 21.9941 31.588 23.9045 31.6843 24.8709C31.0777 24.8764 30.1706 24.8486 29.2465 24.6654C27.9823 24.421 27.0638 23.9712 26.5139 23.3325C24.6033 21.1166 24.2178 18.8785 24.0704 18.0343C24.0421 17.8844 23.957 17.7511 23.8266 17.6623C23.6962 17.5734 23.5432 17.5401 23.3844 17.5678C23.2313 17.5956 23.0953 17.6789 23.0046 17.8067C22.9139 17.9344 22.8798 18.0843 22.9082 18.2343C23.1123 19.4061 23.5091 21.0555 24.6373 22.7938C24.7167 24.8653 25.0115 26.5036 25.5558 27.8032C26.0093 28.8917 26.65 29.7358 27.455 30.319C27.4437 30.3245 27.438 30.3301 27.4267 30.3356C25.4707 31.3742 23.7246 32.5626 22.4887 33.6789C21.2584 32.5571 19.5123 31.3797 17.5507 30.3412C17.5393 30.3356 17.528 30.3301 17.5166 30.3245C18.3217 29.7414 18.9623 28.8972 19.4159 27.8032C19.9545 26.5036 20.2549 24.8653 20.3343 22.7938C21.4852 21.0389 21.9784 19.3061 22.1825 18.3176ZM21.3435 34.212H14.733C11.1443 32.0684 10.4129 30.4467 10.2655 29.8302C10.5037 29.7358 10.9175 29.6303 11.5298 29.6303C13.3723 29.6303 15.521 30.5633 16.9951 31.3519C18.6789 32.2405 20.2209 33.2568 21.3435 34.212Z" fill="white"/>
</svg>
