<svg width="46" height="46" viewBox="0 0 46 46" fill="none" xmlns="http://www.w3.org/2000/svg">
<circle cx="22.8733" cy="22.8733" r="21.8733" fill="#91D2D6" stroke="#F2F9FF" stroke-width="2"/>
<g clip-path="url(#clip0_3027_147)">
<path d="M31.5596 26.4194C33.5408 24.3179 34.6258 21.5159 34.5315 18.5271C34.3899 12.5496 29.3425 7.64613 23.3515 7.55273C23.3044 7.55273 23.2572 7.55273 23.1628 7.55273C17.0776 7.55273 12.1244 12.2227 11.8414 18.247C11.8414 18.5271 11.747 18.854 11.5583 19.0875L9.15254 22.4032C8.53929 23.2905 8.72798 24.458 9.57709 25.0651L10.7564 25.9057C11.4168 26.3727 11.7942 27.1666 11.7942 27.9605V29.2681C11.7942 30.996 13.2094 32.3969 14.9548 32.3969H18.6814C19.389 32.3969 20.0494 32.7238 20.474 33.3309L22.6439 36.4131C22.927 36.7867 23.3515 37.0202 23.7761 37.0202C24.0119 37.0202 24.2006 36.9735 24.3893 36.8801L32.7389 32.7238C33.3993 32.3969 33.6824 31.6497 33.3993 30.9493L31.5596 26.4194ZM32.503 32.1634L24.1535 36.3197C23.7761 36.5065 23.3515 36.4131 23.1157 36.0395L20.9457 32.9573C20.4268 32.2568 19.5777 31.7898 18.6814 31.7898H14.9548C13.5396 31.7898 12.4075 30.6224 12.4075 29.2214V27.9605C12.4075 26.9798 11.9357 26.0458 11.1338 25.4387L9.9073 24.5981C9.29405 24.1778 9.15253 23.3372 9.62426 22.7301L12.0301 19.4144C12.2659 19.0875 12.4075 18.7139 12.4075 18.2937C12.6433 12.5496 17.4078 8.11313 23.1628 8.11313H23.3515C29.0594 8.20653 33.8239 12.8765 33.9654 18.5271C34.0597 21.3758 32.9748 24.0844 31.0407 26.0925C30.9935 26.0925 30.9935 26.1392 30.9463 26.1859C30.3803 26.793 29.7198 27.3067 28.9651 27.7737C28.8236 27.8671 28.7764 28.0072 28.8707 28.1473C28.9651 28.2874 29.1066 28.3341 29.2481 28.2407C29.9085 27.8204 30.5218 27.3534 31.0407 26.8397L32.7861 31.0894C33.0691 31.5096 32.8804 31.9766 32.503 32.1634Z" fill="white" stroke="white" stroke-miterlimit="10"/>
<path d="M30.2387 23.0104C30.2387 22.4967 30.0972 21.983 29.767 21.5627C30.8048 21.2358 31.6067 20.2551 31.6067 19.1343C31.6067 18.1536 31.0406 17.2663 30.1444 16.846C30.4274 16.4724 30.5689 16.0521 30.5689 15.5851C30.5689 14.4643 29.6726 13.577 28.5405 13.577C28.4933 13.577 28.4461 13.577 28.399 13.577C28.399 13.5303 28.399 13.4369 28.399 13.3902C28.399 12.3162 27.5499 11.4756 26.4649 11.4756C26.3234 11.4756 26.1347 11.4756 25.9932 11.5223C25.8045 10.7751 25.0969 10.168 24.2949 10.168C23.6817 10.168 23.1156 10.4949 22.7854 10.9619C22.4552 10.4949 21.9363 10.168 21.2759 10.168C20.4739 10.168 19.7664 10.7284 19.5777 11.5223C19.4361 11.5223 19.2946 11.5223 19.1059 11.5223C18.021 11.5223 17.1719 12.4096 17.1719 13.4369C17.1719 13.4836 17.1719 13.577 17.1719 13.6237C17.1247 13.6237 17.0775 13.6237 17.0303 13.6237C15.8982 13.6237 15.0019 14.511 15.0019 15.6318C15.0019 16.0988 15.1434 16.5191 15.4265 16.8927C14.5774 17.313 13.9641 18.2003 13.9641 19.181C13.9641 20.3018 14.7189 21.2825 15.8038 21.6094C15.5208 22.0297 15.3321 22.5434 15.3321 23.0571C15.3321 24.4581 16.4643 25.5789 17.8794 25.5789C18.1625 25.5789 18.3983 25.5322 18.6814 25.4388C18.6814 25.4855 18.6814 25.5322 18.6814 25.5789C18.6814 26.793 19.672 27.7737 20.8985 27.7737C21.7004 27.7737 22.408 27.3067 22.7854 26.6529C23.1628 27.3067 23.8704 27.7737 24.6723 27.7737C25.8988 27.7737 26.8894 26.793 26.8894 25.5789C26.8894 25.5322 26.8894 25.4855 26.8894 25.4388C27.1253 25.5322 27.4083 25.5789 27.6914 25.5789C29.1066 25.5789 30.2387 24.4114 30.2387 23.0104ZM20.8985 27.1666C20.0022 27.1666 19.2475 26.4661 19.2475 25.5322C19.2475 25.3454 19.2946 25.1586 19.3418 25.0185C19.5305 24.5515 19.9079 24.1779 20.3796 23.9911C20.5211 23.9444 20.6155 23.8043 20.5683 23.6175C20.5211 23.4307 20.3796 23.384 20.1909 23.4307C19.5305 23.6175 19.0588 24.1312 18.7757 24.6916C18.4927 24.8317 18.1625 24.9251 17.8323 24.9251C16.7473 24.9251 15.851 24.0378 15.851 22.9637C15.851 22.4033 16.0869 21.8896 16.4643 21.516C16.5586 21.4226 16.5586 21.3292 16.5586 21.2358C16.5586 21.1424 16.4171 21.049 16.3227 21.049C15.2849 20.9556 14.483 20.115 14.483 19.0876C14.483 18.2003 15.0963 17.4531 15.9454 17.2196C16.1341 17.1729 16.2756 17.1729 16.4643 17.1729C17.0303 17.1729 17.5492 17.4064 17.9266 17.8267C17.9738 17.8734 18.0681 17.9201 18.1625 17.9201C18.2097 17.9201 18.304 17.9201 18.3512 17.8267C18.4455 17.7333 18.4927 17.5465 18.3512 17.4064C17.8794 16.8927 17.1719 16.5658 16.4643 16.5658C16.2756 16.5658 16.1341 16.5658 15.9454 16.6125C15.6623 16.3323 15.4736 15.9587 15.4736 15.5851C15.4736 14.7912 16.1341 14.1374 16.936 14.1374C17.0303 14.1374 17.1247 14.1374 17.2662 14.1841C17.5492 14.8379 18.2568 15.3049 19.0588 15.3049C19.4361 15.3049 19.8135 15.2115 20.1437 14.978C20.2853 14.8846 20.3324 14.6978 20.2381 14.6044C20.1437 14.511 19.955 14.4176 19.8607 14.511C19.6248 14.6511 19.389 14.7445 19.1059 14.7445C18.4927 14.7445 17.9738 14.3709 17.7851 13.8105C17.7851 13.7638 17.7379 13.6704 17.7379 13.6237V13.577C17.7379 13.5303 17.7379 13.4369 17.7379 13.3902C17.7379 12.643 18.3512 12.036 19.1059 12.036C19.2946 12.036 19.5305 12.0827 19.672 12.1761C19.7664 12.2228 19.8607 12.2228 19.955 12.1761C20.0494 12.1294 20.0966 12.036 20.0966 11.9426C20.0966 11.2888 20.6626 10.7751 21.2759 10.7751C21.9363 10.7751 22.5024 11.2888 22.5024 11.9426V25.5322C22.5024 26.4661 21.7948 27.1666 20.8985 27.1666ZM26.7479 24.785C26.5121 24.1779 25.9932 23.7109 25.3327 23.5241C25.1912 23.4774 25.0025 23.5708 24.9554 23.7109C24.9082 23.851 25.0025 24.0378 25.1441 24.0845C25.663 24.2246 26.0403 24.6449 26.1819 25.1119C26.229 25.252 26.2762 25.4388 26.2762 25.6256C26.2762 26.5128 25.5686 27.26 24.6251 27.26C23.7289 27.26 23.0213 26.5595 23.0213 25.6256V11.9893C23.0213 11.3355 23.5873 10.8218 24.2478 10.8218C24.9082 10.8218 25.4271 11.3355 25.4271 11.9893C25.4271 12.0827 25.4743 12.1761 25.5686 12.2228C25.6629 12.2695 25.7573 12.2695 25.8516 12.2228C26.0403 12.1294 26.229 12.0827 26.4177 12.0827C27.1725 12.0827 27.7857 12.6897 27.7857 13.4369C27.7857 13.4836 27.7857 13.577 27.7857 13.6237V13.6704C27.7857 13.7171 27.7386 13.8105 27.7386 13.8572C27.5499 14.3709 27.031 14.7912 26.4177 14.7912C26.1347 14.7912 25.8516 14.6978 25.6629 14.5577C25.5214 14.4643 25.3327 14.511 25.2856 14.6511C25.2384 14.7912 25.2384 14.9313 25.3799 15.0247C25.7101 15.2582 26.0875 15.3516 26.4649 15.3516C27.2668 15.3516 27.9272 14.8846 28.2575 14.2308C28.3518 14.2308 28.4461 14.1841 28.5877 14.1841C29.3896 14.1841 30.05 14.8379 30.05 15.6318C30.05 16.0521 29.9085 16.4257 29.5783 16.6592C29.3896 16.6592 29.2009 16.6592 29.0594 16.6592C28.3518 16.6592 27.6442 16.9394 27.1725 17.4998C27.0781 17.5932 27.0781 17.78 27.1725 17.9201C27.2197 17.9668 27.314 18.0135 27.3612 18.0135C27.4555 18.0135 27.5027 17.9668 27.597 17.9201C27.9744 17.4998 28.4933 17.2663 29.0594 17.2663C29.2481 17.2663 29.3896 17.2663 29.5783 17.313C30.4274 17.5465 31.0406 18.2937 31.0406 19.181C31.0406 20.2084 30.2387 21.049 29.2009 21.1424C29.1066 21.1424 29.0122 21.2358 28.965 21.3292C28.9179 21.4226 28.965 21.5627 29.0594 21.6094C29.4839 21.983 29.6726 22.4967 29.6726 23.0571C29.6726 24.1312 28.7764 25.0185 27.6914 25.0185C27.3612 25.0185 27.031 24.9251 26.7479 24.785Z" fill="white" stroke="white" stroke-miterlimit="10"/>
</g>
<defs>
<clipPath id="clip0_3027_147">
<rect width="26.228" height="29.8878" fill="white" transform="translate(8.53931 7.31934)"/>
</clipPath>
</defs>
</svg>
