<svg width="46" height="46" viewBox="0 0 46 46" fill="none" xmlns="http://www.w3.org/2000/svg">
<circle cx="22.8733" cy="22.8733" r="21.8733" fill="#91D2D6" stroke="#F2F9FF" stroke-width="2"/>
<path d="M37.3395 26.9894C37.3395 23.5455 34.6956 20.7497 31.4389 20.7497C28.1821 20.7497 25.5382 23.5455 25.5382 26.9894C25.5382 30.4333 28.1821 33.2291 31.4389 33.2291C34.6956 33.2291 37.3395 30.4333 37.3395 26.9894ZM26.5929 26.9969C26.5929 24.171 28.7664 21.8726 31.4389 21.8726C34.1113 21.8726 36.2848 24.171 36.2848 26.9969C36.2848 29.8229 34.1113 32.1213 31.4389 32.1213C28.7664 32.1213 26.5929 29.8229 26.5929 26.9969Z" fill="white"/>
<path d="M31.4389 19.0014C29.4791 19.0014 27.6903 19.7927 26.3434 21.0964C26.0085 21.0059 25.6379 20.923 25.2317 20.8477C25.3172 20.6518 25.36 20.4558 25.3529 20.2448L25.3457 17.6299C25.3457 17.5696 25.3386 17.5093 25.3172 17.4566C25.3172 17.4566 25.3172 17.4566 25.3172 17.449C25.7163 17.3586 26.094 17.2606 26.4432 17.1476C28.2961 16.5523 29.2653 15.7158 29.2582 14.7286L29.251 12.1136C29.251 12.076 29.2439 12.0383 29.2368 12.0006C29.1655 11.0586 28.1821 10.2674 26.3933 9.72478C24.8184 9.24249 22.6876 8.97874 20.5497 9.00134C18.4117 9.02395 16.2809 9.32538 14.7202 9.83029C12.8959 10.4181 11.9195 11.247 11.9124 12.2191C11.9124 12.2267 11.9124 12.2267 11.9124 12.2342V12.2493L11.9195 14.8416C11.9195 14.9094 11.9267 14.9773 11.9338 15.0376C9.38966 15.6253 8 16.5824 8 17.7655L8.01425 20.3729C8.01425 20.7874 8.18529 21.1717 8.5131 21.5259C9.18299 22.2267 10.5584 22.7844 12.34 23.1235C12.2545 23.3119 12.2117 23.5154 12.2117 23.7113C12.2117 23.7641 12.2117 23.8093 12.2189 23.8545L12.226 26.3262C12.226 26.5975 12.2972 26.8538 12.4398 27.0949C10.7864 27.7656 10.3446 28.5569 10.3018 29.1673C10.2947 29.2049 10.2876 29.2426 10.2876 29.2803L10.2947 31.8952C10.2947 32.3097 10.4657 32.7016 10.8007 33.0482C11.9338 34.2313 15.0623 34.9925 18.7609 34.9925C18.8322 34.9925 18.8963 34.9925 18.9676 35H18.9818C22.3598 34.9774 25.36 34.2992 26.7497 33.2668C28.0395 34.3444 29.6644 34.9925 31.4389 34.9925C33.4628 34.9925 35.3584 34.156 36.7908 32.6413C38.2161 31.1266 39 29.122 39 26.9969C39 22.5885 35.6078 19.0014 31.4389 19.0014ZM27.1274 32.1515C27.106 32.1288 27.0775 32.0987 27.049 32.0836C26.6 31.6465 26.208 31.1492 25.8874 30.5991C25.8874 30.5915 25.8802 30.584 25.8802 30.5765C25.8589 30.5011 25.8161 30.4333 25.7662 30.3805C25.474 29.8379 25.2531 29.2502 25.1106 28.6247C25.1106 28.5795 25.1106 28.5267 25.1034 28.4815C25.0892 28.4212 25.0749 28.3609 25.0464 28.3082C24.968 27.8862 24.9324 27.4566 24.9324 27.012C24.9324 26.7407 24.9467 26.4694 24.9752 26.2057C25.0108 26.1152 25.0251 26.0097 25.0179 25.9042C25.2389 24.4574 25.8874 23.1612 26.8209 22.1665C26.8637 22.1363 26.8993 22.0986 26.9278 22.0534C28.0966 20.8552 29.6929 20.1167 31.446 20.1167C35.0377 20.1167 37.9595 23.2064 37.9595 27.0045C37.9595 30.8025 35.0377 33.8922 31.446 33.8922C29.8069 33.8922 28.3032 33.2517 27.163 32.1891C27.1416 32.1741 27.1345 32.1665 27.1274 32.1515ZM13.5159 23.3044C14.4352 23.4174 15.4329 23.4777 16.4805 23.4777H16.7014C18.8464 23.4626 20.9772 23.1687 22.5451 22.6638C23.3005 22.4227 23.9062 22.1439 24.3623 21.8273C24.7828 21.8876 25.1676 21.963 25.5168 22.0384C24.7756 23.0255 24.2483 24.2011 24.0131 25.4898C23.0012 25.6329 21.9536 25.7158 20.8989 25.7234C17.5352 25.7535 14.4067 25.0678 13.4731 24.0881C13.3448 23.9525 13.2736 23.8243 13.2736 23.7264C13.2736 23.6359 13.3234 23.5003 13.5159 23.3044ZM9.26138 20.7271C9.1331 20.5915 9.06184 20.4634 9.06184 20.3654L9.05471 19.3707C10.4657 20.2976 13.2451 20.8703 16.4591 20.8703H16.68C18.8251 20.8552 20.9559 20.5538 22.5237 20.0564C23.2577 19.8228 23.8492 19.544 24.3053 19.2426V20.2448C24.3053 20.9457 21.6186 22.3322 16.6871 22.3624C13.2593 22.385 10.2021 21.7143 9.26138 20.7271ZM12.4897 16.0624C13.6726 17.2079 16.7513 17.9464 20.3857 17.9464C20.4499 17.9464 20.5069 17.9464 20.5782 17.9615H20.6067C21.8823 17.9539 23.1437 17.8409 24.291 17.6525C24.291 18.3533 21.5972 19.7399 16.6729 19.7701C13.3021 19.8002 10.1807 19.1144 9.24713 18.1348C9.11885 17.9991 9.04759 17.871 9.04759 17.7731C9.04759 17.3737 9.98828 16.5824 12.4897 16.0624ZM20.5639 10.1091C25.4811 10.0714 28.1821 11.4053 28.1963 12.0986C28.1963 12.1965 28.1322 12.3246 28.011 12.4528C27.6191 12.8748 26.7212 13.3043 25.5382 13.6208C24.1414 13.9976 22.431 14.2011 20.5924 14.2237C18.4901 14.2463 16.4947 13.9976 14.9768 13.5304C13.3876 13.0255 12.9671 12.4678 12.9671 12.2342C12.9671 12.1363 13.0313 12.0081 13.1524 11.88C13.5444 11.458 14.4423 11.0285 15.6253 10.712C17.0221 10.3352 18.7324 10.1242 20.5639 10.1091ZM14.6917 14.6005C16.2168 15.0752 18.2407 15.339 20.3857 15.339C20.457 15.339 20.5211 15.339 20.5924 15.3465H20.6067C22.7446 15.3239 24.8754 15.0225 26.4361 14.5176C27.163 14.284 27.7616 14.0051 28.2106 13.7037L28.2177 14.721C28.2177 15.4219 25.531 16.8085 20.5995 16.8386C17.2359 16.8688 14.1074 16.183 13.1738 15.2033C13.0455 15.0677 12.9743 14.9396 12.9743 14.8416V13.8394C13.409 14.1257 13.9862 14.3819 14.6917 14.6005ZM20.6779 26.8161C20.7492 26.8161 20.8133 26.8161 20.8846 26.8236H20.8989C21.8966 26.8161 22.8943 26.7483 23.8848 26.6201C23.8777 26.7483 23.8777 26.8688 23.8777 26.9969C23.8777 27.3737 23.9062 27.743 23.949 28.1122C23.0012 28.2479 21.9821 28.3232 20.906 28.3232C17.749 28.3459 14.9055 27.7731 13.7368 26.914C13.7154 26.899 13.694 26.8764 13.6726 26.8688C13.6014 26.8085 13.5372 26.7558 13.4802 26.6955C13.352 26.5599 13.2807 26.4317 13.2807 26.3338V25.324C14.6989 26.2434 17.471 26.8161 20.6779 26.8161ZM20.6851 29.431C20.7634 29.431 20.8276 29.431 20.8989 29.4385H20.9131C22.0533 29.431 23.1508 29.3481 24.1699 29.1974C24.291 29.6345 24.4407 30.0565 24.626 30.4634C23.1651 30.9608 21.1483 31.2472 18.9747 31.2698C15.611 31.2999 12.4825 30.6141 11.549 29.6345C11.4207 29.4988 11.3494 29.3707 11.3494 29.2728C11.3494 29.0316 11.7699 28.4664 13.3163 27.954C14.7416 28.8658 17.4995 29.431 20.6851 29.431ZM18.7609 32.3775H18.9676C21.3336 32.3549 23.557 32.0158 25.1605 31.4431C25.3956 31.8199 25.6664 32.1665 25.9586 32.4906C24.7115 33.3044 21.9892 33.8621 18.9747 33.8847C15.611 33.9148 12.4825 33.2291 11.549 32.2494C11.4207 32.1138 11.3494 31.9857 11.3494 31.8877V30.8628C12.7605 31.7973 15.5398 32.3775 18.7609 32.3775Z" fill="white"/>
</svg>
