<svg width="46" height="46" viewBox="0 0 46 46" fill="none" xmlns="http://www.w3.org/2000/svg">
<circle cx="22.8733" cy="22.8733" r="21.8733" fill="#91D2D6" stroke="#F2F9FF" stroke-width="2"/>
<path d="M36.8891 22.0667C36.6544 21.38 35.8914 19.4733 34.1567 17.5667C32.9112 16.2 31.4178 15.1067 29.7158 14.3267C27.6094 13.36 25.1835 12.8667 22.4967 12.8667C19.81 12.8667 17.3841 13.36 15.2777 14.3267C13.5757 15.1067 12.0823 16.2 10.8367 17.5667C9.10861 19.48 8.34563 21.38 8.11086 22.0667C8.03913 22.1733 8 22.3 8 22.44V22.52C8 22.6533 8.03913 22.7867 8.11086 22.8933C8.31302 23.4933 8.9195 25 10.2042 26.6333C11.6584 28.4867 14.306 30.8467 18.6949 31.7333C18.7731 31.94 18.8383 32.16 18.884 32.4067C18.1405 32.6 17.5862 33.2867 17.5862 34.1133V34.8533C17.5862 35.82 18.3557 36.6067 19.3013 36.6067H19.5752C19.8752 37.9733 21.0686 39 22.4967 39C23.9249 39 25.1248 37.9733 25.4183 36.6H25.6922C26.6377 36.6 27.4072 35.8133 27.4072 34.8467V34.1067C27.4072 33.2867 26.8529 32.5933 26.1095 32.4C26.1552 32.16 26.2204 31.9333 26.2986 31.7267C30.6874 30.84 33.3351 28.48 34.7893 26.6267C36.074 24.9933 36.6739 23.48 36.8826 22.8867C36.9544 22.78 36.9935 22.6533 36.9935 22.5133V22.4333C37 22.3067 36.9609 22.1733 36.8891 22.0667ZM26.3964 29.2933C26.3834 29.3067 26.3638 29.32 26.3508 29.3333C26.2921 29.3867 25.0596 30.52 24.8053 32.3533H23.1554V28.1733C24.3227 27.8733 25.1965 26.7933 25.1965 25.5067C25.1965 23.9867 23.9901 22.7533 22.5033 22.7533C21.0164 22.7533 19.81 23.9867 19.81 25.5067C19.81 26.7933 20.6773 27.8733 21.8511 28.1733V32.3533H20.1947C19.9404 30.52 18.7079 29.3867 18.6492 29.3333C18.6362 29.32 18.6166 29.3067 18.6036 29.2933C16.895 28.02 15.8777 25.9733 15.8777 23.82C15.8777 20.0867 18.8448 17.0533 22.4967 17.0533C26.1486 17.0533 29.1158 20.0867 29.1158 23.82C29.1223 25.9733 28.105 28.02 26.3964 29.2933ZM22.4967 26.92C21.7338 26.92 21.1077 26.2867 21.1077 25.5C21.1077 24.7133 21.7272 24.08 22.4967 24.08C23.2662 24.08 23.8858 24.7133 23.8858 25.5C23.8858 26.2867 23.2662 26.92 22.4967 26.92ZM22.4967 37.6667C21.7924 37.6667 21.1925 37.2267 20.9382 36.6H24.0618C23.8075 37.2267 23.201 37.6667 22.4967 37.6667ZM26.1095 34.8467C26.1095 35.0733 25.9204 35.2667 25.6987 35.2667H19.3013C19.0796 35.2667 18.8905 35.0733 18.8905 34.8467V34.1067C18.8905 33.88 19.0796 33.6867 19.3013 33.6867H25.6987C25.9204 33.6867 26.1095 33.88 26.1095 34.1067V34.8467ZM33.7785 25.8C32.1808 27.8267 30.107 29.2467 27.5833 30.0333C29.3701 28.5 30.4201 26.22 30.4201 23.82C30.4201 19.3533 26.866 15.72 22.4967 15.72C18.1275 15.72 14.5734 19.3533 14.5734 23.82C14.5734 26.2133 15.6233 28.5 17.4102 30.0333C14.9125 29.2467 12.8453 27.8467 11.2541 25.8467C10.0868 24.38 9.53249 23.0067 9.3499 22.4867C9.5651 21.88 10.2694 20.1467 11.8345 18.44C14.4169 15.6333 18.0036 14.2067 22.4967 14.2067C26.9899 14.2067 30.5766 15.6333 33.159 18.44C34.7306 20.1533 35.4349 21.8867 35.6436 22.4867C35.4675 23 34.9262 24.34 33.7785 25.8ZM21.8446 10.84V7.66667C21.8446 7.3 22.1381 7 22.4967 7C22.8554 7 23.1489 7.3 23.1489 7.66667V10.84C23.1489 11.2067 22.8554 11.5067 22.4967 11.5067C22.1381 11.5067 21.8446 11.2067 21.8446 10.84ZM25.9791 10.8267L28.1637 7.96C28.3854 7.66667 28.7963 7.62 29.0767 7.84C29.3636 8.06667 29.4093 8.48667 29.1941 8.77333L27.0094 11.64C26.879 11.8067 26.6899 11.9 26.4943 11.9C26.3573 11.9 26.2139 11.8533 26.0965 11.76C25.8095 11.54 25.7574 11.12 25.9791 10.8267ZM15.8059 8.78C15.5842 8.48667 15.6364 8.07333 15.9233 7.84667C16.2103 7.62 16.6146 7.67333 16.8363 7.96667L19.0209 10.8333C19.2426 11.1267 19.1905 11.54 18.9035 11.7667C18.7861 11.86 18.6427 11.9067 18.5057 11.9067C18.3101 11.9067 18.121 11.82 17.9906 11.6467L15.8059 8.78Z" fill="white"/>
</svg>
