<svg xmlns="http://www.w3.org/2000/svg" xmlns:xlink="http://www.w3.org/1999/xlink"><symbol id="sprite-email" viewBox="0 0 23 18"><path d="M23 0H0v17.888h23zm-1.166 1.328v.731L11.5 9.884 1.166 2.059v-.73zM1.166 16.56V3.653L11.5 11.478l10.334-7.825V16.56z"/></symbol><use xlink:href="#sprite-email" width="23" height="18" y="0"/><view id="sprite-email-view" viewBox="0 0 23 18"/><symbol id="sprite-phone" viewBox="0 0 20 20"><path d="M4.84 1.425a.55.55 0 0 1 .393.161v.001q.03.03.056.066L7.313 4.57a.56.56 0 0 1-.04.68l-2.2 2.581a.71.71 0 0 0-.06.841l.002.002a20.3 20.3 0 0 0 2.805 3.5 20.3 20.3 0 0 0 3.516 2.815.7.7 0 0 0 .832-.064l2.58-2.199a.56.56 0 0 1 .682-.04l2.916 2.024.066.056h.001c.181.181.216.47.073.691l-1.915 2.798a.56.56 0 0 1-.386.245h-.005a6 6 0 0 1-.897.064c-2.628 0-6.099-1.51-9.217-4.63h-.001C2.577 10.448 1.097 6.518 1.497 3.819a.56.56 0 0 1 .246-.391v-.001l2.798-1.913a.56.56 0 0 1 .3-.089M4.84 0c-.374 0-.752.106-1.087.327L.92 2.279l-.005.004H.914Q.778 2.38.657 2.5l-.001.003H.655a1.98 1.98 0 0 0-.585 1.14v.006c-.48 3.384 1.55 7.841 4.994 11.285l.004.005C8.176 18.043 12.105 20 15.33 20q.517 0 1.005-.067l.02-.003a2 2 0 0 0 1.144-.588q.119-.12.214-.253l1.959-2.84a1.98 1.98 0 0 0-.53-2.719l-2.938-2.025a2 2 0 0 0-1.096-.332 1.95 1.95 0 0 0-1.279.476l-2.15 1.834a.07.07 0 0 1-.046.016.1.1 0 0 1-.039-.01 19.3 19.3 0 0 1-2.776-2.313h-.001A19.5 19.5 0 0 1 6.51 8.407v-.001a.07.07 0 0 1 .004-.085L8.35 6.17a1.96 1.96 0 0 0 .146-2.371L6.47.858Q6.365.706 6.243.583L6.238.578A1.98 1.98 0 0 0 4.838 0"/></symbol><use xlink:href="#sprite-phone" width="20" height="20" y="18"/><view id="sprite-phone-view" viewBox="0 18 20 20"/><symbol id="sprite-user" viewBox="0 0 15 20"><path fill-rule="evenodd" clip-rule="evenodd" d="M6.376.127C4.601.493 3.018 1.873 2.482 3.522c-.251.772-.27 2.074-.04 2.817.675 2.181 2.71 3.649 5.058 3.649 2.349 0 4.383-1.468 5.058-3.649.23-.743.212-2.045-.04-2.817-.544-1.672-2.123-3.034-3.941-3.4-.818-.164-1.39-.163-2.2.005m2.657 1.679c.849.373 1.393.869 1.785 1.626.307.591.33.707.33 1.6 0 .873-.029 1.016-.297 1.52-.364.685-1.093 1.346-1.86 1.687-.493.22-.713.258-1.491.258s-.998-.038-1.492-.258c-.766-.34-1.495-1.002-1.86-1.687-.267-.504-.295-.647-.296-1.518 0-.84.033-1.03.266-1.503a3.44 3.44 0 0 1 1.605-1.614c1.113-.563 2.199-.6 3.31-.111m-5.163 9.77C2.174 12.016.76 13.32.228 14.93c-.206.623-.226.88-.227 2.85L0 19.942l.735.029.735.028v-1.76c0-.968.048-2.035.106-2.371.203-1.187.944-2.138 2.078-2.667l.603-.28h6.486l.577.256a3.62 3.62 0 0 1 2.104 2.69c.058.337.105 1.404.106 2.372V20l.735-.028.735-.029V17.78c-.002-1.969-.022-2.226-.228-2.849-.539-1.632-1.955-2.922-3.687-3.36-.746-.188-6.49-.184-7.215.005"/></symbol><use xlink:href="#sprite-user" width="15" height="20" y="38"/><view id="sprite-user-view" viewBox="0 38 15 20"/></svg>