<svg width="50" height="47" viewBox="0 0 50 47" fill="none" xmlns="http://www.w3.org/2000/svg">
<path opacity="0.9" d="M2.04883 10.8801C3.67799 11.1737 5.10357 11.5003 6.21875 11.8342C6.8073 12.0105 7.32103 12.192 7.7373 12.3752C8.13664 12.5511 8.50942 12.7551 8.76172 13.0002C9.22418 13.4497 9.62737 14.212 9.99512 15.1516C10.2781 15.8748 10.5589 16.754 10.8359 17.7776L11.1113 18.8489C11.1658 19.0712 11.2166 19.2656 11.2637 19.4348C11.3172 19.2485 11.3733 19.049 11.4268 18.843C11.8243 17.3106 12.2022 16.1013 12.5869 15.1721C12.9675 14.2529 13.378 13.5491 13.8701 13.0803C14.0846 12.8761 14.3787 12.7037 14.6973 12.553C15.0259 12.3975 15.4286 12.2432 15.8965 12.0881C16.8328 11.7779 18.0772 11.4509 19.6143 11.1096C19.9968 11.0247 20.3188 10.949 20.5908 10.886C20.4396 10.8556 20.2726 10.8223 20.0879 10.7864C18.5893 10.4946 17.2019 10.1384 16.1025 9.77368C15.5535 9.59155 15.0662 9.40331 14.668 9.21607C14.2869 9.03689 13.9268 8.83103 13.6846 8.59204C13.4823 8.3923 13.2997 8.09961 13.1406 7.80005C12.9734 7.48503 12.8006 7.10195 12.6299 6.67603C12.288 5.823 11.9405 4.76151 11.6484 3.65259C11.4826 3.023 11.3619 2.56643 11.2725 2.23267C11.2272 2.39651 11.1763 2.59178 11.1211 2.82446C10.8977 3.76596 10.5443 4.89631 10.1865 5.87622C10.0073 6.36709 9.82455 6.82764 9.65332 7.21314C9.48788 7.58558 9.31506 7.92938 9.15234 8.15942C8.7051 8.79154 7.86852 9.26037 6.77734 9.66235C5.65677 10.0752 4.1354 10.4632 2.16602 10.8557C2.12678 10.8635 2.08754 10.8722 2.04883 10.8801Z" stroke="#18656B" stroke-width="1.4"/>
<path opacity="0.9" fill-rule="evenodd" clip-rule="evenodd" d="M36.0614 40.396C36.1 40.3418 36.6431 40.1954 37.268 40.0709C39.7149 39.5832 40.9673 39.1218 41.3632 38.5623C41.6632 38.1383 42.2558 36.5153 42.5253 35.3794C42.7439 34.458 42.8795 34.2209 43.1371 34.3091C43.3157 34.3703 43.2709 34.2455 43.7031 35.8867C44.0603 37.2432 44.5516 38.4689 44.86 38.7736C45.2455 39.1542 46.7933 39.6677 48.6383 40.0269C49.8855 40.2697 50.0324 40.3263 49.995 40.5488C49.9686 40.7066 49.7699 40.7716 48.354 41.086C46.4456 41.5096 45.3067 41.887 44.9708 42.2068C44.4863 42.6681 44.0581 43.7024 43.5653 45.6016C43.4157 46.1784 43.2475 46.6912 43.1915 46.7411C42.9537 46.9534 42.7787 46.6563 42.5199 45.5997C42.068 43.7557 41.6067 42.577 41.1713 42.1539C40.7721 41.766 39.1913 41.2927 37.0304 40.914C36.0641 40.7446 35.8821 40.6473 36.0614 40.396Z" fill="#18656B"/>
</svg>
