<svg width="1008" height="313" viewBox="0 0 1008 313" fill="none" xmlns="http://www.w3.org/2000/svg">
<rect width="1008" height="313" fill="#91D2D6"/>
<rect width="1008" height="313" fill="url(#paint0_linear_3055_154)" fill-opacity="0.5"/>
<mask id="mask0_3055_154" style="mask-type:alpha" maskUnits="userSpaceOnUse" x="0" y="0" width="1008" height="313">
<rect x="1" y="1" width="1006" height="311" rx="21.6878" fill="#FFDAC0"/>
<rect x="1" y="1" width="1006" height="311" rx="21.6878" fill="url(#paint1_linear_3055_154)" fill-opacity="0.5"/>
<rect x="1" y="1" width="1006" height="311" rx="21.6878" stroke="url(#paint2_linear_3055_154)" stroke-width="2"/>
<rect x="1" y="1" width="1006" height="311" rx="21.6878" stroke="url(#paint3_linear_3055_154)" stroke-width="2"/>
</mask>
<g mask="url(#mask0_3055_154)">
<g opacity="0.6">
<path d="M934.593 184.032C934.593 138.081 897.322 100.776 851.412 100.776C805.502 100.776 768.231 138.081 768.231 184.032C768.231 229.984 805.502 267.288 851.412 267.288C897.322 267.288 934.593 229.984 934.593 184.032ZM783.1 184.133C783.1 146.426 813.74 115.758 851.412 115.758C889.085 115.758 919.725 146.426 919.725 184.133C919.725 221.839 889.085 252.507 851.412 252.507C813.74 252.507 783.1 221.839 783.1 184.133Z" fill="white" fill-opacity="0.3"/>
<path d="M851.412 77.4485C823.786 77.4485 798.57 88.0063 779.583 105.402C774.862 104.195 769.638 103.089 763.912 102.083C765.117 99.4691 765.72 96.8548 765.62 94.0394L765.519 59.1483C765.519 58.3439 765.419 57.5395 765.117 56.8356C765.117 56.8356 765.117 56.8356 765.117 56.7351C770.743 55.5285 776.067 54.2213 780.99 52.7131C807.109 44.7696 820.772 33.6085 820.671 20.4363L820.571 -14.4547C820.571 -14.9575 820.471 -15.4602 820.37 -15.963C819.366 -28.5318 805.502 -39.0896 780.287 -46.3292C758.085 -52.7645 728.048 -56.2837 697.91 -55.9821C667.772 -55.6804 637.734 -51.6584 615.734 -44.9215C590.016 -37.0786 576.253 -26.018 576.152 -13.047C576.152 -12.9464 576.152 -12.9464 576.152 -12.8459V-12.6448L576.253 21.9446C576.253 22.8496 576.353 23.7545 576.454 24.5589C540.59 32.4019 521 45.1718 521 60.9582L521.201 95.7487C521.201 101.279 523.612 106.407 528.233 111.133C537.676 120.484 557.065 127.925 582.18 132.45C580.974 134.963 580.372 137.678 580.372 140.293C580.372 140.996 580.372 141.6 580.472 142.203L580.573 175.184C580.573 178.803 581.577 182.222 583.586 185.44C560.28 194.389 554.051 204.947 553.449 213.091C553.348 213.594 553.248 214.097 553.248 214.599L553.348 249.491C553.348 255.021 555.759 260.249 560.481 264.875C576.454 280.661 620.556 290.817 672.694 290.817C673.699 290.817 674.603 290.817 675.608 290.917H675.809C723.426 290.616 765.72 281.566 785.31 267.791C803.493 282.169 826.398 290.817 851.412 290.817C879.943 290.817 906.665 279.656 926.857 259.445C946.949 239.234 958 212.488 958 184.133C958 125.311 910.181 77.4485 851.412 77.4485ZM790.634 252.909C790.333 252.608 789.931 252.205 789.529 252.004C783.2 246.172 777.675 239.536 773.154 232.196C773.154 232.095 773.054 231.995 773.054 231.894C772.752 230.889 772.149 229.984 771.446 229.28C767.327 222.04 764.213 214.197 762.204 205.852C762.204 205.248 762.204 204.544 762.103 203.941C761.903 203.137 761.702 202.332 761.3 201.628C760.195 195.998 759.692 190.266 759.692 184.334C759.692 180.714 759.893 177.094 760.295 173.575C760.797 172.368 760.998 170.961 760.898 169.553C764.012 150.247 773.154 132.952 786.314 119.68C786.917 119.278 787.419 118.775 787.821 118.171C804.297 102.184 826.8 92.33 851.513 92.33C902.144 92.33 943.333 133.556 943.333 184.233C943.333 234.911 902.144 276.136 851.513 276.136C828.407 276.136 807.21 267.59 791.136 253.412C790.835 253.211 790.734 253.11 790.634 252.909ZM598.756 134.863C611.715 136.371 625.78 137.176 640.547 137.176H643.661C673.9 136.974 703.937 133.053 726.038 126.316C736.687 123.098 745.226 119.378 751.656 115.155C757.583 115.959 763.008 116.965 767.93 117.97C757.482 131.143 750.048 146.828 746.733 164.023C732.468 165.933 717.7 167.039 702.832 167.14C655.415 167.542 611.313 158.392 598.153 145.32C596.345 143.51 595.34 141.801 595.34 140.494C595.34 139.287 596.043 137.477 598.756 134.863ZM538.781 100.475C536.973 98.6647 535.969 96.9553 535.969 95.6481L535.868 82.3755C555.759 94.7432 594.938 102.385 640.246 102.385H643.36C673.598 102.184 703.636 98.1619 725.737 91.5256C736.084 88.4085 744.423 84.6881 750.852 80.6661V94.0394C750.852 103.391 712.979 121.892 643.46 122.294C595.139 122.596 552.042 113.647 538.781 100.475ZM584.29 38.2338C600.966 53.5175 644.365 63.3714 695.599 63.3714C696.503 63.3714 697.307 63.3714 698.311 63.5725H698.713C716.696 63.472 734.477 61.9637 750.651 59.45C750.651 68.8012 712.677 87.3025 643.26 87.7047C595.742 88.1069 551.741 78.9568 538.58 65.8852C536.772 64.0753 535.768 62.3659 535.768 61.0588C535.768 55.7296 549.028 45.1718 584.29 38.2338ZM698.111 -41.2012C767.428 -41.7039 805.502 -23.9065 805.703 -14.6558C805.703 -13.3486 804.799 -11.6393 803.091 -9.92992C797.566 -4.29909 784.908 1.43229 768.231 5.65541C748.541 10.6829 724.431 13.3978 698.512 13.6994C668.877 14.0011 640.748 10.6829 619.35 4.4488C596.948 -2.28808 591.02 -9.72883 591.02 -12.8459C591.02 -14.1531 591.925 -15.8624 593.632 -17.5718C599.158 -23.2026 611.816 -28.934 628.492 -33.1571C648.182 -38.1846 672.292 -41 698.111 -41.2012ZM615.332 18.727C636.83 25.0617 665.361 28.5809 695.599 28.5809C696.604 28.5809 697.508 28.5809 698.512 28.6815H698.713C728.851 28.3798 758.889 24.3578 780.889 17.6209C791.136 14.5039 799.575 10.7835 805.904 6.76147L806.004 20.3358C806.004 29.687 768.131 48.1883 698.613 48.5905C651.196 48.9927 607.094 39.8426 593.934 26.771C592.126 24.9611 591.121 23.2518 591.121 21.9446V8.57137C597.249 12.3923 605.386 15.811 615.332 18.727ZM699.718 181.719C700.723 181.719 701.627 181.719 702.631 181.82H702.832C716.897 181.719 730.961 180.814 744.925 179.105C744.824 180.814 744.824 182.423 744.824 184.133C744.824 189.16 745.226 194.087 745.829 199.014C732.468 200.824 718.102 201.83 702.933 201.83C658.429 202.131 618.346 194.489 601.87 183.027C601.569 182.825 601.267 182.524 600.966 182.423C599.961 181.619 599.057 180.915 598.254 180.111C596.445 178.301 595.441 176.591 595.441 175.284V161.81C615.432 174.078 654.511 181.719 699.718 181.719ZM699.818 216.61C700.923 216.61 701.828 216.61 702.832 216.711H703.033C719.107 216.61 734.577 215.504 748.943 213.493C750.651 219.325 752.761 224.956 755.373 230.386C734.778 237.022 706.348 240.843 675.708 241.145C628.291 241.547 584.189 232.397 571.029 219.325C569.221 217.515 568.216 215.806 568.216 214.499C568.216 211.281 574.143 203.74 595.943 196.903C616.035 209.069 654.913 216.61 699.818 216.61ZM672.694 255.926H675.608C708.96 255.624 740.304 251.099 762.907 243.457C766.222 248.485 770.04 253.11 774.159 257.434C756.578 268.293 718.203 275.734 675.708 276.036C628.291 276.438 584.189 267.288 571.029 254.216C569.221 252.406 568.216 250.697 568.216 249.39V235.715C588.107 248.183 627.286 255.926 672.694 255.926Z" fill="white" fill-opacity="0.3"/>
</g>
</g>
<defs>
<linearGradient id="paint0_linear_3055_154" x1="1361.5" y1="-70.7078" x2="618.796" y2="-710.775" gradientUnits="userSpaceOnUse">
<stop stop-color="white" stop-opacity="0"/>
<stop offset="0.581931" stop-color="white"/>
<stop offset="1" stop-color="white" stop-opacity="0"/>
</linearGradient>
<linearGradient id="paint1_linear_3055_154" x1="1027.52" y1="-77.5859" x2="384.202" y2="-586.463" gradientUnits="userSpaceOnUse">
<stop stop-color="white" stop-opacity="0"/>
<stop offset="0.581931" stop-color="white"/>
<stop offset="1" stop-color="white" stop-opacity="0"/>
</linearGradient>
<linearGradient id="paint2_linear_3055_154" x1="60.6358" y1="13.9204" x2="228.226" y2="350.945" gradientUnits="userSpaceOnUse">
<stop stop-color="white"/>
<stop offset="1" stop-color="white" stop-opacity="0"/>
</linearGradient>
<linearGradient id="paint3_linear_3055_154" x1="1076.98" y1="-140.132" x2="641.947" y2="-36.7724" gradientUnits="userSpaceOnUse">
<stop stop-color="white"/>
<stop offset="1" stop-color="white" stop-opacity="0"/>
</linearGradient>
</defs>
</svg>
